<?xml version="1.0" standalone="no"?>
<!DOCTYPE svg PUBLIC "-//W3C//DTD SVG 20010904//EN"
 "http://www.w3.org/TR/2001/REC-SVG-20010904/DTD/svg10.dtd">
<svg version="1.0" xmlns="http://www.w3.org/2000/svg"
 width="569.000000pt" height="569.000000pt" viewBox="0 0 569.000000 569.000000"
 preserveAspectRatio="xMidYMid meet">
<metadata>
Created by potrace 1.14, written by Peter Selinger 2001-2017
</metadata>
<g transform="translate(0.000000,569.000000) scale(0.100000,-0.100000)"
fill="#000000" stroke="none">
<path d="M1808 5568 c-7 -3 -16 -4 -20 -2 -4 3 -8 1 -8 -4 0 -5 -9 -12 -19
-15 -35 -9 -63 -66 -58 -120 7 -83 78 -134 172 -125 105 11 162 107 116 195
-16 33 -59 69 -83 72 -5 1 -9 1 -10 2 -14 5 -82 3 -90 -3z"/>
<path d="M4589 5573 c-3 -20 -4 -1250 -1 -1263 2 -12 26 -15 133 -15 127 0
129 0 130 22 1 23 5 58 8 68 0 3 16 -10 33 -30 18 -19 39 -35 45 -35 7 0 13
-4 13 -8 0 -25 175 -45 240 -27 14 4 31 7 38 7 6 1 12 5 12 10 0 4 9 8 20 8
11 0 20 5 20 11 0 5 4 8 8 5 10 -6 92 70 92 85 0 6 5 7 10 4 6 -3 10 -1 10 5
0 6 11 28 25 50 14 22 22 40 19 40 -4 0 -2 6 4 13 5 6 13 26 16 42 3 17 9 41
12 55 10 40 12 223 3 250 -5 14 -10 36 -12 50 -1 14 -8 35 -15 48 -7 12 -10
22 -7 22 7 0 -43 74 -73 108 -10 12 -24 22 -30 22 -6 0 -12 4 -14 10 -9 26
-209 72 -223 50 -2 -3 -18 -5 -34 -4 -17 1 -31 -2 -31 -7 0 -4 -7 -6 -15 -3
-8 4 -15 2 -15 -3 0 -5 -16 -15 -35 -22 -20 -7 -41 -21 -48 -32 -6 -10 -18
-19 -25 -19 -7 0 -11 -3 -9 -7 3 -5 -5 -15 -17 -24 l-22 -17 1 257 c1 141 -1
262 -3 269 -3 9 -39 12 -133 12 -71 0 -130 -3 -130 -7z m495 -600 c6 -4 13 -8
16 -8 3 0 19 -9 36 -19 28 -17 62 -77 71 -125 5 -24 5 -134 0 -151 -2 -8 -7
-32 -12 -52 -4 -21 -11 -38 -16 -38 -5 0 -9 -6 -9 -13 0 -17 -66 -78 -74 -70
-3 4 -6 2 -6 -4 0 -6 -25 -9 -62 -8 -65 2 -98 11 -98 26 0 5 -6 9 -12 9 -7 0
-24 19 -37 43 -30 51 -40 172 -21 261 10 49 20 66 57 102 25 24 49 42 53 39 5
-3 11 -1 14 3 7 11 84 14 100 5z"/>
<path d="M176 5513 c-3 -4 -33 -5 -65 -4 l-59 2 -4 -60 c-2 -36 1 -61 7 -61 7
0 7 -3 0 -8 -11 -8 -14 -84 -3 -92 4 -3 81 -5 172 -5 142 0 166 -2 167 -15 0
-8 1 -230 1 -492 1 -337 4 -478 12 -480 6 -2 67 -3 136 -3 l125 0 5 495 5 495
160 0 c88 -1 165 0 170 2 9 3 12 110 6 208 -1 17 -8 20 -56 20 -30 0 -55 -4
-55 -8 0 -4 -9 -3 -19 3 -11 5 -22 6 -25 2 -3 -5 -30 -5 -60 -2 -31 3 -56 2
-56 -2 0 -5 -9 -4 -19 2 -11 5 -22 7 -24 3 -3 -5 -57 -6 -121 -3 -64 3 -116 1
-116 -3 0 -4 -9 -3 -19 3 -12 6 -22 6 -25 1 -3 -5 -21 -5 -41 -1 -21 5 -35 4
-35 -1 0 -6 -8 -5 -19 1 -12 6 -22 6 -25 1 -3 -5 -21 -5 -41 -1 -21 5 -35 4
-35 -1 0 -6 -8 -6 -19 0 -10 6 -21 7 -25 4z"/>
<path d="M2259 5510 c-7 -5 -16 -7 -19 -5 -3 2 -5 -269 -5 -601 0 -398 3 -604
10 -605 41 -5 248 -3 257 2 6 4 10 97 11 245 l2 239 48 -1 c26 0 47 3 47 8 0
4 6 5 13 2 24 -9 98 -10 103 -2 3 5 10 6 15 2 16 -9 109 -10 109 -1 0 4 8 4
17 -2 10 -5 26 -5 40 0 14 5 25 4 29 -2 4 -6 11 -6 20 2 8 6 14 7 14 2 0 -6
10 -10 22 -9 l21 1 -1 -242 c0 -134 3 -244 6 -244 19 -3 248 -5 258 -2 8 3 11
178 11 608 l-1 603 -33 4 c-18 2 -33 0 -33 -4 0 -5 -9 -4 -19 2 -12 6 -22 6
-25 1 -3 -5 -21 -5 -41 -1 -21 5 -35 4 -35 -1 0 -6 -8 -6 -18 0 -13 7 -22 7
-30 -1 -8 -8 -15 -8 -26 1 -12 10 -14 -21 -12 -234 0 -135 -1 -245 -4 -246
-16 -3 -477 -4 -487 -1 -9 3 -12 63 -12 239 0 129 -2 237 -4 240 -9 8 -127 9
-127 0 0 -4 -9 -3 -19 3 -12 6 -22 6 -26 1 -3 -6 -17 -6 -34 -1 -15 4 -34 4
-42 0z"/>
<path d="M1453 5172 c-13 -2 -23 -8 -23 -13 0 -5 -4 -8 -9 -6 -18 5 -72 -46
-101 -96 l-30 -52 0 76 c0 91 11 85 -150 84 l-115 0 -2 -435 -1 -435 128 0
c71 0 131 3 134 6 3 2 6 114 7 248 1 211 3 249 19 284 10 22 25 44 34 49 9 5
14 13 11 18 -16 26 153 60 183 37 6 -5 12 -6 12 -2 0 4 6 3 13 -3 8 -7 16 -6
25 4 7 8 9 14 5 14 -4 0 -7 47 -6 105 1 70 -3 107 -10 112 -12 8 -85 11 -124
5z"/>
<path d="M1727 5158 c-15 -9 -17 -98 -3 -98 6 0 5 -4 -2 -9 -15 -9 -15 -17 -1
-43 5 -10 6 -18 2 -18 -10 0 -9 -172 1 -188 3 -6 2 -13 -4 -17 -9 -6 -5 -58 6
-76 2 -4 1 -10 -4 -13 -10 -6 -8 -158 2 -174 4 -7 3 -12 -1 -12 -10 0 -9 -197
1 -207 12 -12 256 -10 257 2 4 25 6 832 3 845 -3 12 -25 15 -125 15 -66 0
-126 -3 -132 -7z"/>
<path d="M3526 5150 c-7 -28 0 -584 8 -630 17 -97 85 -194 154 -221 48 -18
166 -31 187 -20 5 2 20 6 33 7 42 5 135 69 158 109 21 37 30 25 28 -35 -1 -33
1 -60 5 -61 35 -5 248 -4 256 2 12 8 13 845 1 856 -4 4 -64 8 -134 8 l-127 0
-1 -270 c0 -285 -5 -320 -47 -368 -40 -44 -123 -60 -176 -33 -72 38 -79 70
-79 369 -1 139 -1 263 -1 277 l-1 25 -130 0 c-107 0 -131 -3 -134 -15z"/>
<path d="M1671 3370 c-22 -16 -44 -37 -49 -47 -16 -29 -25 -139 -24 -282 0
-122 2 -135 21 -155 16 -16 25 -18 38 -10 27 17 31 32 49 206 10 92 21 173 25
180 11 18 82 -22 144 -83 72 -70 134 -123 179 -153 39 -26 39 -26 245 -26
l206 0 85 71 c47 39 99 81 115 95 17 13 43 35 60 49 44 36 83 51 98 36 19 -19
13 -1582 -7 -1886 -9 -126 -17 -243 -20 -260 -2 -16 -9 -70 -15 -120 -6 -49
-15 -115 -21 -145 -17 -102 -21 -125 -29 -185 -5 -33 -13 -73 -19 -90 -15 -41
-40 -202 -47 -301 -4 -69 -3 -85 13 -104 36 -44 77 -7 92 83 12 68 54 288 79
407 11 52 20 111 21 131 0 20 3 38 6 42 3 3 8 29 10 59 6 75 10 106 23 167 6
29 11 84 11 122 0 37 5 80 11 96 9 24 26 880 29 1523 1 195 -15 466 -30 505
-20 53 -59 85 -103 85 -31 0 -58 -12 -125 -57 -48 -31 -116 -83 -152 -115 -36
-32 -83 -67 -106 -78 -38 -19 -48 -19 -135 -9 -81 11 -102 10 -148 -4 -74 -22
-99 -10 -211 98 -48 47 -92 85 -97 85 -5 0 -18 9 -30 19 -20 19 -83 54 -128
71 -19 7 -31 3 -64 -20z"/>
<path d="M4947 3389 c-9 -6 -17 -8 -17 -5 0 3 -12 -1 -27 -9 -15 -8 -31 -11
-37 -8 -6 3 -8 3 -4 -2 4 -4 -15 -19 -42 -32 -28 -14 -50 -30 -50 -36 0 -5 -3
-8 -6 -4 -4 3 -47 -35 -96 -85 -97 -98 -137 -126 -150 -105 -4 7 -8 8 -8 2 0
-6 -29 -10 -68 -10 -37 0 -72 -3 -79 -8 -6 -4 -14 -3 -18 3 -5 8 -10 8 -20 0
-7 -6 -28 -13 -46 -15 -45 -6 -61 -32 -35 -58 26 -26 183 -40 247 -23 15 4 44
8 65 9 22 1 45 6 53 12 26 19 136 128 133 132 -1 2 9 15 23 29 14 14 25 21 25
17 0 -4 7 3 16 15 8 12 22 22 30 22 8 0 14 5 14 12 0 6 3 8 7 5 3 -4 13 -1 22
7 20 17 61 30 62 19 1 -4 3 -17 4 -28 11 -74 14 -93 24 -117 6 -15 6 -30 1
-33 -5 -3 -4 -20 1 -40 6 -19 7 -39 4 -44 -3 -5 -2 -12 3 -15 5 -3 8 -21 7
-40 -1 -20 2 -36 8 -36 5 0 3 -8 -4 -17 -8 -9 -9 -14 -3 -10 7 4 11 -6 12 -26
7 -119 10 -154 15 -167 7 -19 9 -60 9 -180 -1 -98 -9 -160 -21 -160 -4 0 -8
-6 -8 -13 0 -8 -10 -35 -23 -61 -25 -53 -33 -141 -13 -158 7 -6 13 -17 13 -24
0 -8 4 -14 9 -14 5 0 13 -9 16 -20 4 -11 17 -32 31 -47 13 -14 21 -29 18 -34
-3 -5 2 -9 10 -9 9 0 16 -7 16 -15 0 -8 5 -15 10 -15 6 0 10 -7 10 -15 0 -8 7
-15 16 -15 8 0 12 -4 9 -10 -3 -5 -1 -10 6 -10 7 0 10 -3 6 -6 -3 -3 17 -28
45 -55 28 -27 47 -49 43 -49 -4 0 2 -8 13 -19 12 -10 19 -21 15 -25 -3 -3 0
-6 7 -6 7 0 11 -3 7 -6 -3 -3 4 -16 15 -29 11 -13 20 -27 20 -32 0 -4 8 -19
17 -33 20 -29 35 -62 33 -72 -1 -5 3 -8 10 -8 6 0 8 -3 5 -7 -4 -3 -1 -13 5
-21 7 -8 13 -19 14 -26 2 -6 19 -56 39 -111 20 -55 38 -109 40 -120 1 -11 5
-27 9 -35 3 -8 8 -26 10 -40 3 -14 8 -36 11 -50 4 -14 8 -38 10 -55 1 -16 7
-46 12 -66 6 -20 10 -71 9 -113 0 -42 2 -76 6 -76 11 0 14 -43 5 -85 -5 -22
-9 -62 -8 -88 0 -27 -4 -58 -11 -70 -6 -11 -12 -32 -13 -46 -2 -24 -14 -52
-58 -136 -24 -45 -54 -67 -173 -130 -23 -12 -52 -25 -65 -30 -13 -4 -26 -8
-29 -9 -3 -1 -16 -8 -29 -15 -13 -7 -21 -9 -17 -3 3 5 -11 1 -32 -9 -20 -10
-55 -20 -77 -23 -22 -3 -55 -10 -74 -15 -19 -6 -37 -9 -39 -6 -3 2 -13 0 -23
-6 -14 -7 -19 -6 -19 3 0 8 -3 9 -8 3 -12 -16 -28 -18 -246 -18 -154 -1 -211
3 -214 11 -2 7 -9 9 -15 5 -19 -12 -37 -12 -37 -2 0 6 -3 8 -7 6 -9 -5 -105
10 -168 27 -95 25 -186 70 -239 118 -23 20 -47 42 -54 48 -7 6 -10 15 -7 21 4
5 2 9 -3 9 -8 0 -15 13 -26 50 -1 3 -4 10 -7 15 -3 6 -4 20 -3 33 0 12 -2 22
-6 22 -4 0 -8 10 -9 23 0 12 -2 45 -4 72 -1 28 0 55 3 60 3 6 6 24 7 40 0 17
4 44 8 60 4 17 8 35 9 40 1 6 14 32 29 59 15 27 27 50 27 53 0 2 9 13 20 25
10 12 17 25 15 29 -3 4 4 10 15 14 11 3 20 12 20 19 0 15 71 88 82 84 4 -2 13
5 20 15 7 9 23 19 36 22 12 2 28 7 35 12 12 8 22 10 67 19 76 14 103 13 140
-6 41 -21 74 -68 64 -93 -3 -8 -6 -27 -8 -43 -2 -16 -4 -33 -5 -37 0 -5 -5 -5
-11 -2 -5 3 -10 2 -10 -2 0 -5 -12 -16 -27 -25 -16 -9 -37 -25 -48 -35 -11
-11 -28 -22 -38 -26 -10 -4 -16 -11 -12 -16 3 -5 -4 -16 -15 -24 -11 -7 -17
-17 -13 -20 3 -4 2 -7 -4 -7 -17 0 -43 -69 -46 -125 -1 -16 -6 -33 -12 -37 -6
-5 -6 -8 2 -8 6 0 14 -14 18 -30 4 -17 10 -30 14 -30 4 0 13 -12 19 -26 7 -14
17 -22 22 -19 6 3 10 2 10 -2 0 -5 13 -17 30 -26 56 -33 130 -49 233 -49 83 1
102 4 116 19 28 31 13 72 -27 67 -14 -1 -31 0 -37 4 -5 3 -41 8 -80 9 -63 3
-111 8 -125 13 -3 1 -8 2 -11 2 -3 -1 -21 12 -39 27 -30 25 -34 33 -33 78 0
40 7 60 32 97 18 25 36 46 41 46 5 0 21 11 36 25 15 14 33 25 40 25 8 0 14 5
14 10 0 6 6 10 13 10 16 0 53 60 49 79 -2 7 1 10 6 7 5 -3 7 24 5 62 -4 95 -4
92 -32 121 -33 34 -127 99 -116 80 8 -12 6 -12 -8 0 -9 7 -17 10 -17 6 0 -4
-6 -3 -12 2 -14 11 -101 10 -153 -2 -39 -8 -156 -64 -177 -84 -37 -35 -53 -46
-63 -43 -5 2 -7 1 -3 -3 9 -10 -24 -45 -35 -38 -6 3 -7 2 -4 -4 3 -5 -3 -16
-14 -23 -10 -8 -19 -20 -19 -26 0 -6 -11 -23 -25 -38 -24 -26 -65 -105 -65
-125 0 -6 -4 -11 -10 -11 -5 0 -6 -7 -3 -17 4 -9 2 -14 -3 -10 -5 3 -10 -2
-11 -11 -1 -17 -10 -57 -13 -57 -2 0 -9 -66 -13 -125 -2 -25 2 -71 8 -102 6
-31 10 -64 9 -72 -1 -9 2 -13 9 -9 6 4 8 1 5 -8 -7 -18 35 -122 45 -113 4 4 7
0 7 -8 0 -9 20 -34 44 -56 24 -22 41 -43 38 -46 -3 -3 1 -6 9 -6 9 0 25 -9 36
-19 12 -11 24 -17 27 -14 3 4 6 2 6 -4 0 -9 29 -26 55 -33 6 -1 22 -11 38 -22
15 -11 40 -21 55 -22 15 -2 35 -6 44 -10 9 -4 22 -8 30 -10 7 -1 18 -5 25 -9
6 -4 14 -3 18 3 4 6 11 8 16 5 9 -6 35 -12 84 -20 17 -2 44 -7 60 -11 39 -8
431 -9 470 0 29 6 70 14 110 21 11 2 29 6 40 8 11 3 26 -1 34 -7 11 -8 13 -8
7 2 -5 8 -1 12 13 12 11 0 22 4 25 8 2 4 19 9 38 10 18 1 42 6 53 11 11 5 40
17 65 27 25 10 85 42 134 71 49 29 93 53 98 53 4 0 8 4 8 9 0 5 7 16 15 25 24
23 96 162 88 169 -3 4 -2 7 4 7 6 0 14 15 18 33 4 17 9 34 10 37 24 71 42 360
21 360 -4 0 -6 6 -3 14 3 7 0 19 -6 25 -8 8 -8 14 1 23 7 7 8 17 3 27 -10 19
-21 71 -26 123 -1 20 -6 41 -9 47 -7 11 -12 30 -22 81 -2 14 -7 32 -11 40 -3
8 -7 20 -9 27 -5 25 -36 119 -45 138 -6 12 -11 29 -13 38 -1 9 -8 23 -14 29
-7 7 -12 19 -12 27 0 16 -57 131 -69 141 -10 8 -35 64 -32 73 1 5 -2 6 -6 4
-8 -5 -28 12 -31 26 -1 4 -6 13 -12 20 -39 46 -50 61 -50 69 0 5 -4 6 -10 3
-5 -3 -12 6 -16 20 -3 13 -10 22 -15 19 -5 -3 -9 1 -9 9 0 8 -6 17 -14 20 -8
3 -41 41 -73 84 -32 43 -61 80 -64 83 -23 18 -12 159 11 145 7 -5 28 41 31 70
1 6 6 21 12 35 11 27 19 229 9 244 -3 6 -7 28 -9 50 -1 23 -5 64 -8 91 -3 28
-8 77 -10 110 -9 118 -13 150 -20 168 -4 9 -4 24 -1 33 3 8 2 12 -4 9 -6 -3
-10 -2 -10 4 0 5 5 13 10 16 7 4 6 14 -2 28 -6 12 -13 37 -15 57 -2 19 -5 49
-7 65 -5 45 -28 115 -38 115 -5 0 -6 5 -2 12 4 7 3 8 -5 4 -6 -4 -17 -3 -24 2
-8 7 -18 7 -30 1z"/>
<path d="M3800 3371 c0 -6 -3 -10 -7 -10 -35 6 -77 -53 -87 -119 -3 -23 -9
-50 -14 -60 -5 -9 -8 -37 -7 -62 0 -25 -4 -48 -10 -52 -6 -5 -5 -8 3 -8 9 0
10 -5 3 -18 -6 -11 -9 -42 -7 -70 1 -29 -1 -52 -6 -52 -4 0 -7 -3 -7 -7 1 -5
0 -12 -1 -18 -4 -22 0 -119 6 -139 11 -34 10 -715 -1 -771 -12 -59 -12 -161 0
-225 4 -25 9 -74 10 -110 2 -36 4 -65 5 -65 1 0 3 -15 5 -33 2 -23 0 -30 -8
-25 -9 5 -9 3 0 -8 7 -8 12 -24 12 -34 -1 -11 2 -31 6 -45 3 -14 8 -43 10 -65
10 -100 14 -124 25 -163 8 -32 17 -43 36 -48 44 -11 77 51 50 95 -5 8 -4 16 4
21 7 5 8 10 2 14 -5 3 -8 19 -7 36 1 16 -1 30 -4 30 -4 0 -7 28 -6 63 1 34 -1
67 -4 72 -7 11 -9 37 -17 215 -9 185 -14 1080 -6 1080 4 0 6 47 6 105 -1 58 2
108 6 110 4 2 6 25 4 50 -2 25 0 45 5 45 4 0 7 19 6 43 -1 23 3 48 9 56 8 11
8 13 -1 7 -9 -5 -11 -2 -7 8 3 9 10 16 16 16 5 0 7 4 4 9 -10 16 30 0 57 -23
14 -12 38 -31 53 -42 16 -10 40 -30 55 -44 15 -14 33 -26 40 -28 7 -2 18 -11
25 -20 6 -9 31 -31 56 -49 47 -34 69 -30 80 14 6 24 -4 37 -72 93 -24 19 -51
43 -61 52 -9 9 -20 14 -23 11 -3 -4 -6 -1 -6 5 0 6 -16 22 -35 35 -19 13 -33
26 -30 29 3 2 -14 15 -38 28 -23 13 -48 30 -55 37 -7 7 -20 13 -27 13 -7 0
-21 7 -29 16 -9 8 -16 11 -16 5z"/>
<path d="M1592 2776 c-25 -32 -46 -195 -40 -307 3 -66 10 -96 32 -138 14 -30
26 -61 25 -70 -1 -9 1 -32 5 -52 10 -49 -29 -127 -99 -196 -29 -28 -67 -72
-84 -97 -17 -25 -37 -49 -45 -53 -18 -11 -117 -165 -159 -248 -60 -119 -85
-177 -107 -255 -11 -41 -25 -86 -29 -100 -17 -52 -30 -128 -35 -205 -3 -44
-10 -95 -17 -113 -6 -18 -8 -53 -5 -80 3 -26 11 -105 16 -177 8 -93 16 -135
27 -147 22 -24 38 -23 61 6 17 23 20 48 25 268 7 282 24 410 71 538 8 19 19
53 26 75 15 48 88 197 138 280 19 33 74 99 120 147 47 48 90 95 96 105 5 10
17 25 25 35 9 9 31 42 50 72 50 83 51 123 7 255 -40 122 -45 193 -26 350 9 71
9 87 -5 107 -20 31 -48 31 -73 0z"/>
<path d="M1969 2748 c-30 -29 -34 -39 -37 -98 -4 -65 -4 -67 32 -98 47 -41 79
-41 121 1 59 59 57 127 -6 195 -38 41 -67 41 -110 0z"/>
<path d="M2525 2760 c-10 -11 -23 -17 -29 -13 -6 3 -8 3 -4 -1 4 -5 -2 -17
-12 -29 -44 -46 -33 -136 21 -182 35 -29 65 -32 97 -9 76 53 67 191 -16 233
-39 20 -40 20 -57 1z"/>
<path d="M3994 2589 c-3 -5 -9 -7 -13 -5 -4 3 -8 -11 -9 -30 -2 -23 2 -36 13
-40 8 -3 13 -9 10 -13 -7 -13 86 -54 124 -56 38 -2 80 21 119 63 26 29 26 33
10 54 -17 20 -46 30 -53 17 -4 -5 -10 -7 -15 -4 -4 3 -10 -1 -13 -8 -8 -22
-69 -18 -119 7 -27 13 -50 20 -54 15z"/>
<path d="M4552 2569 c-18 -28 -15 -47 11 -73 33 -34 73 -56 101 -56 30 0 73
15 91 33 7 6 22 20 34 29 27 23 27 53 0 72 -22 15 -43 12 -70 -11 -18 -15 -80
-12 -101 4 -26 20 -55 21 -66 2z"/>
<path d="M1834 1409 c-39 -43 -36 -301 6 -454 21 -77 70 -219 87 -250 5 -11
18 -45 29 -75 10 -30 22 -59 26 -65 4 -5 8 -18 8 -30 0 -11 6 -29 13 -40 8
-11 17 -31 21 -45 29 -108 47 -181 52 -215 12 -88 41 -120 84 -93 32 20 37 63
17 153 -3 11 -12 60 -22 110 -15 80 -39 157 -66 207 -5 10 -9 23 -9 31 0 7
-10 30 -21 52 -38 70 -92 209 -95 245 -2 19 -8 46 -13 60 -12 30 -31 228 -31
321 -1 94 -42 137 -86 88z"/>
<path d="M323 1273 c-29 -14 -53 -29 -53 -33 0 -5 -16 -18 -35 -30 -58 -36
-120 -141 -149 -252 -29 -110 -32 -185 -11 -273 8 -33 15 -74 15 -91 0 -51
141 -228 246 -311 63 -49 183 -109 259 -127 39 -10 86 -22 105 -28 51 -16 500
-21 675 -8 83 6 186 13 230 15 44 2 98 7 120 10 143 19 169 25 191 46 29 28
30 40 3 65 -22 20 -60 21 -164 2 -68 -12 -77 -13 -270 -25 -142 -8 -675 -11
-730 -4 -31 5 -146 33 -203 50 -92 28 -231 137 -312 246 -33 45 -39 60 -50
150 -16 122 -16 130 -1 230 18 118 59 197 127 242 63 42 133 53 172 27 22 -15
23 -19 17 -82 -4 -37 -18 -90 -31 -118 -20 -42 -24 -67 -24 -143 0 -97 6 -117
61 -198 17 -24 46 -49 71 -61 95 -46 128 -52 280 -52 147 0 148 0 164 25 16
25 16 27 -6 50 -20 22 -32 25 -89 25 -110 0 -238 18 -285 38 -87 39 -111 155
-61 297 39 108 47 151 35 194 -35 130 -170 186 -297 124z"/>
<path d="M2377 1042 c-20 -22 -21 -62 -6 -532 9 -264 13 -318 26 -332 22 -24
33 -23 66 8 l28 26 -2 232 c-2 127 -8 304 -13 393 -10 139 -14 166 -32 190
-26 35 -45 39 -67 15z"/>
</g>
</svg>
